<svg width="110px" height="45.56px" fill="none" xmlns="http://www.w3.org/2000/svg"><path d="M0 25.645v-8.041c0-.254.062-.507.248-.697.187-.19.373-.253.684-.317H2.67l1.739 6.902 1.74-6.838h2.67v8.991H7.143v-7.218l-1.801 7.218H3.416l-1.739-7.218v7.218H0zm13.602-.316c-.372.19-.745.317-1.118.38-.372.063-.745.063-1.056.063-.62 0-1.118-.19-1.614-.506-.435-.317-.684-.887-.684-1.71 0-.697.187-1.266.621-1.583.435-.317.932-.507 1.615-.633.063 0 .187 0 .311-.064.124-.063.248-.063.435-.063.745-.127 1.118-.317 1.118-.697 0-.253-.125-.443-.373-.506s-.497-.127-.745-.127c-.249 0-.435.064-.621.127-.187.063-.31.19-.435.38H9.379c.062-.507.31-.95.683-1.33.435-.38 1.118-.57 1.988-.57.931 0 1.677.19 2.111.507.497.38.746.823.746 1.456v2.343c0 .697-.124 1.267-.373 1.646-.31.444-.621.76-.932.887zm-.434-3.166a3.082 3.082 0 01-.994.317l-.56.126c-.31.063-.496.19-.682.317a1.03 1.03 0 00-.187.57.82.82 0 00.249.633c.124.127.372.19.683.19.497 0 .87-.127 1.118-.443.248-.254.435-.697.435-1.14l-.062-.57zm1.802 1.203h1.738c0 .38.125.633.373.76.248.19.621.253.994.253.31 0 .559-.063.807-.19.187-.127.31-.253.31-.506 0-.317-.372-.57-1.055-.697-.31-.063-.56-.127-.683-.127-.932-.253-1.491-.506-1.802-.823-.372-.316-.496-.696-.496-1.266 0-.697.248-1.203.745-1.647.497-.38 1.18-.57 1.988-.57.87 0 1.614.19 2.111.57.497.444.746 1.014.808 1.71H19.69c-.31 0-.56-.127-.746-.443l-.186-.19a1.533 1.533 0 00-.807-.253c-.373 0-.622.063-.746.126-.124.127-.248.253-.248.444 0 .253.435.506 1.304.696a.462.462 0 00.249.063h.248c.87.254 1.49.507 1.801.76.31.317.497.697.497 1.267 0 .76-.248 1.33-.807 1.773-.497.38-1.242.57-2.298.57-.932 0-1.677-.19-2.174-.57-.56-.38-.808-.95-.808-1.71zm9.253 2.28c-.559.063-1.18 0-1.801 0-.683-.064-.994-.507-.994-1.267v-7.662h.932c.248 0 .435.064.559.254.186.19.248.38.248.633v1.14h1.056v.38c0 .253-.062.506-.248.633a.79.79 0 01-.621.253h-.187v3.863c0 .316.187.443.497.443h.56v1.33zm4.907-2.153h1.243c-.187.696-.56 1.266-1.056 1.646-.497.38-1.18.57-1.988.57-.931 0-1.739-.317-2.298-.95-.559-.633-.807-1.52-.807-2.66 0-1.14.248-1.962.807-2.596.56-.633 1.304-.95 2.298-.95s1.802.317 2.36.95c.56.634.808 1.52.808 2.66v.506h-4.41c0 .507.124.95.373 1.203.248.254.559.444.993.444.311 0 .56-.063.746-.19.062 0 .062-.064.124-.064l.124-.126c0-.064.062-.127.187-.19.124-.19.248-.253.497-.253zm-3.043-2.027h2.609c-.062-.443-.125-.823-.373-1.013a1.251 1.251 0 00-.932-.38c-.372 0-.683.127-.931.38-.249.253-.373.57-.373 1.013zm4.721 4.179V22.29c0-.696.062-1.266.31-1.71.249-.443.497-.823.808-1.14a3.13 3.13 0 011.118-.57 4.76 4.76 0 011.366-.19h.248v1.837h-.62c-.497 0-.87.127-1.119.38-.248.253-.372.633-.372 1.14v3.546l-1.74.063zm5.714 1.647a.822.822 0 01-.249.633.79.79 0 01-.62.253h-.87V21.72c0-1.203.372-2.027 1.056-2.47.683-.443 1.428-.697 2.298-.697.434 0 .87.064 1.304.254.435.19.807.38 1.056.696.497.697.745 1.52.745 2.596 0 1.077-.248 1.963-.745 2.66-.497.697-1.18.95-1.988.95-.434 0-.807-.063-1.118-.253a1.716 1.716 0 01-.807-.824l-.062 2.66zm2.92-5.066c0-.696-.125-1.203-.374-1.583-.248-.38-.62-.57-1.118-.57-.434 0-.807.19-1.056.57-.248.38-.372.887-.372 1.583 0 .697.124 1.14.373 1.457.248.38.62.57 1.117.57.435 0 .808-.19 1.056-.57.249-.38.373-.887.373-1.457zm2.048 3.419V22.29c0-.696.063-1.266.311-1.71.187-.443.497-.823.808-1.14a3.13 3.13 0 011.118-.57 4.76 4.76 0 011.366-.19h.249v1.837h-.56c-.496 0-.869.127-1.117.38-.249.253-.373.633-.373 1.14v3.546l-1.801.063zm4.846-.633c-.373-.316-.621-.76-.746-1.266-.124-.507-.248-1.077-.248-1.646 0-.444.062-.95.186-1.394.124-.443.31-.823.621-1.14a2.818 2.818 0 011.677-.95c.684-.063 1.305-.063 1.864.19.683.254 1.118.697 1.428 1.33.31.57.435 1.267.435 2.027 0 .57-.062 1.013-.186 1.393-.125.38-.249.76-.435 1.013-.435.57-.932.95-1.553 1.076-.559.127-1.118.19-1.677.064-.559-.19-.994-.38-1.366-.697zm1.242-4.559c-.373.38-.497 1.013-.497 1.773.062.823.186 1.33.435 1.646.124.127.248.254.559.38.248.064.497.127.807 0 .249-.063.497-.253.683-.57.187-.316.311-.823.311-1.52 0-.632-.062-1.076-.31-1.392-.187-.317-.435-.507-.684-.57a1.487 1.487 0 00-.745 0 .78.78 0 00-.56.253zm3.726 8.042v-1.52h.31a.47.47 0 00.311-.126.489.489 0 00.125-.317V18.68h.931a.79.79 0 01.621.254.82.82 0 01.249.633v7.218c0 .57-.187 1.014-.497 1.267-.373.253-.932.38-1.677.38h-.373v.063zm.683-11.778h.932a.79.79 0 01.621.254.82.82 0 01.249.633v.57h-1.74l-.062-1.457zm6.895 6.776h1.243c-.187.696-.56 1.266-1.056 1.646-.497.38-1.18.57-1.988.57-.931 0-1.739-.317-2.298-.95-.559-.633-.807-1.52-.807-2.66 0-1.14.248-1.962.807-2.596.559-.633 1.304-.95 2.298-.95s1.801.317 2.36.95c.56.634.808 1.52.808 2.66v.506h-4.41c0 .507.124.95.373 1.203.248.254.559.444.993.444.311 0 .56-.063.746-.19.062 0 .062-.064.124-.064l.124-.126c0-.064.062-.127.187-.19.186-.19.31-.253.496-.253zm-3.043-2.027h2.609c-.063-.443-.125-.823-.373-1.013a1.252 1.252 0 00-.932-.38c-.372 0-.683.127-.931.38-.249.253-.373.57-.373 1.013zm6.521-2.722v2.532l2.174-2.532h2.112l-2.422 2.66 2.422 4.242h-2.112l-1.242-2.343c-.248-.443-.497-.697-.683-.57-.187.063-.249.19-.249.316v2.597h-1.8v-8.929h.93a.79.79 0 01.622.254.78.78 0 01.248.57v1.203zM70 25.646c-.559.063-1.18 0-1.801 0-.683-.064-.994-.507-.994-1.267v-7.662h.932c.248 0 .434.064.559.254.186.19.248.38.248.633v1.14H70v.38c0 .253-.062.506-.248.633a.79.79 0 01-.621.253h-.187v3.863c0 .316.186.443.497.443h.56v1.33zM63.238 0c-1.775 0-3.306.749-4.468 1.934A6.08 6.08 0 0054.302 0c-1.775 0-3.306.749-4.468 1.934A6.08 6.08 0 0045.366 0c-1.775 0-3.306.749-4.468 1.934A6.08 6.08 0 0036.428 0c-3.427 0-6.181 2.87-6.243 6.365v3.37c0 .998.796 1.809 1.776 1.809.979 0 1.774-.811 1.774-1.81V6.427c0-.749.306-1.435.796-1.934a2.66 2.66 0 011.898-.811 2.66 2.66 0 011.897.81c.49.5.796 1.186.796 1.935v3.37c0 .998.795 1.81 1.775 1.81.979 0 1.774-.812 1.774-1.81V6.489c0-.748.306-1.435.796-1.934a2.66 2.66 0 011.898-.811 2.66 2.66 0 011.897.811c.49.5.796 1.186.796 1.934v3.37c0 .998.795 1.81 1.775 1.81.979 0 1.775-.812 1.775-1.81V6.552c0-.749.306-1.435.795-1.934a2.66 2.66 0 011.898-.812 2.66 2.66 0 011.897.812c.49.499.796 1.185.796 1.934v3.37c0 .998.795 1.809 1.775 1.809.979 0 1.775-.811 1.775-1.81V6.614c0-.749.306-1.435.795-1.934a2.66 2.66 0 011.898-.811 2.66 2.66 0 011.897.81c.49.5.796 1.186.796 1.935v3.37c0 .998.795 1.81 1.775 1.81.979 0 1.775-.812 1.775-1.81V6.677C69.419 2.87 66.665 0 63.238 0z" fill="#fff"/></svg>