<?xml version="1.0" encoding="UTF-8" standalone="no"?>
<!DOCTYPE svg PUBLIC "-//W3C//DTD SVG 1.1//EN" "http://www.w3.org/Graphics/SVG/1.1/DTD/svg11.dtd">
<svg width="100%" height="100%" viewBox="0 0 71 29" version="1.1" xmlns="http://www.w3.org/2000/svg" xmlns:xlink="http://www.w3.org/1999/xlink" xml:space="preserve" xmlns:serif="http://www.serif.com/" style="fill-rule:evenodd;clip-rule:evenodd;stroke-linejoin:round;stroke-miterlimit:2;">
    <path d="M0,25.645L0,17.604C0,17.35 0.062,17.097 0.248,16.907C0.435,16.717 0.621,16.654 0.932,16.59L2.67,16.59L4.409,23.492L6.149,16.654L8.819,16.654L8.819,25.645L7.143,25.645L7.143,18.427L5.342,25.645L3.416,25.645L1.677,18.427L1.677,25.645L0,25.645ZM13.602,25.329C13.23,25.519 12.857,25.646 12.484,25.709C12.112,25.772 11.739,25.772 11.428,25.772C10.808,25.772 10.31,25.582 9.814,25.266C9.379,24.949 9.13,24.379 9.13,23.556C9.13,22.859 9.317,22.29 9.751,21.973C10.186,21.656 10.683,21.466 11.366,21.34C11.429,21.34 11.553,21.34 11.677,21.276C11.801,21.213 11.925,21.213 12.112,21.213C12.857,21.086 13.23,20.896 13.23,20.516C13.23,20.263 13.105,20.073 12.857,20.01C12.609,19.947 12.36,19.883 12.112,19.883C11.863,19.883 11.677,19.947 11.491,20.01C11.304,20.073 11.181,20.2 11.056,20.39L9.379,20.39C9.441,19.883 9.689,19.44 10.062,19.06C10.497,18.68 11.18,18.49 12.05,18.49C12.981,18.49 13.727,18.68 14.161,18.997C14.658,19.377 14.907,19.82 14.907,20.453L14.907,22.796C14.907,23.493 14.783,24.063 14.534,24.442C14.224,24.886 13.913,25.202 13.602,25.329ZM13.168,22.163C12.857,22.324 12.521,22.432 12.174,22.48L11.614,22.606C11.304,22.669 11.118,22.796 10.932,22.923C10.815,23.09 10.749,23.289 10.745,23.493C10.732,23.73 10.823,23.961 10.994,24.126C11.118,24.253 11.366,24.316 11.677,24.316C12.174,24.316 12.547,24.189 12.795,23.873C13.043,23.619 13.23,23.176 13.23,22.733L13.168,22.163ZM14.969,23.366L16.708,23.366C16.708,23.746 16.833,23.999 17.081,24.126C17.329,24.316 17.702,24.379 18.075,24.379C18.385,24.379 18.634,24.316 18.882,24.189C19.069,24.062 19.192,23.936 19.192,23.683C19.192,23.366 18.82,23.113 18.137,22.986C17.827,22.923 17.577,22.859 17.454,22.859C16.522,22.606 15.963,22.353 15.652,22.036C15.28,21.72 15.156,21.34 15.156,20.77C15.156,20.073 15.404,19.567 15.901,19.123C16.398,18.743 17.081,18.553 17.889,18.553C18.759,18.553 19.503,18.743 20,19.123C20.497,19.567 20.746,20.137 20.808,20.833L19.69,20.833C19.38,20.833 19.13,20.706 18.944,20.39L18.758,20.2C18.518,20.042 18.238,19.954 17.951,19.947C17.578,19.947 17.329,20.01 17.205,20.073C17.081,20.2 16.957,20.326 16.957,20.517C16.957,20.77 17.392,21.023 18.261,21.213C18.336,21.257 18.423,21.279 18.51,21.276L18.758,21.276C19.628,21.53 20.248,21.783 20.559,22.036C20.869,22.353 21.056,22.733 21.056,23.303C21.056,24.063 20.808,24.633 20.249,25.076C19.752,25.456 19.007,25.646 17.951,25.646C17.019,25.646 16.274,25.456 15.777,25.076C15.217,24.696 14.969,24.126 14.969,23.366ZM24.223,25.646C23.664,25.709 23.043,25.646 22.422,25.646C21.739,25.582 21.428,25.139 21.428,24.379L21.428,16.717L22.36,16.717C22.608,16.717 22.795,16.781 22.919,16.971C23.105,17.161 23.167,17.351 23.167,17.604L23.167,18.744L24.223,18.744L24.223,19.124C24.223,19.377 24.161,19.63 23.975,19.757C23.816,19.929 23.588,20.022 23.354,20.01L23.167,20.01L23.167,23.873C23.167,24.189 23.354,24.316 23.664,24.316L24.224,24.316L24.224,25.646L24.223,25.646ZM29.13,23.493L30.373,23.493C30.186,24.189 29.813,24.759 29.317,25.139C28.82,25.519 28.137,25.709 27.329,25.709C26.398,25.709 25.59,25.392 25.031,24.759C24.472,24.126 24.224,23.239 24.224,22.099C24.224,20.959 24.472,20.137 25.031,19.503C25.591,18.87 26.335,18.553 27.329,18.553C28.323,18.553 29.131,18.87 29.689,19.503C30.249,20.137 30.497,21.023 30.497,22.163L30.497,22.669L26.087,22.669C26.087,23.176 26.211,23.619 26.46,23.872C26.708,24.126 27.019,24.316 27.453,24.316C27.764,24.316 28.013,24.253 28.199,24.126C28.261,24.126 28.261,24.062 28.323,24.062L28.447,23.936C28.447,23.872 28.509,23.809 28.634,23.746C28.758,23.556 28.882,23.493 29.131,23.493L29.13,23.493ZM26.087,21.466L28.696,21.466C28.634,21.023 28.571,20.643 28.323,20.453C28.079,20.202 27.741,20.064 27.391,20.073C27.019,20.073 26.708,20.2 26.46,20.453C26.211,20.706 26.087,21.023 26.087,21.466ZM30.808,25.645L30.808,22.29C30.808,21.594 30.87,21.024 31.118,20.58C31.367,20.137 31.615,19.757 31.926,19.44C32.256,19.176 32.637,18.983 33.044,18.87C33.488,18.741 33.948,18.677 34.41,18.68L34.658,18.68L34.658,20.517L34.038,20.517C33.541,20.517 33.168,20.644 32.919,20.897C32.671,21.15 32.547,21.53 32.547,22.037L32.547,25.583L30.807,25.646L30.808,25.645ZM36.522,27.292C36.534,27.529 36.443,27.76 36.273,27.925C36.114,28.097 35.887,28.19 35.653,28.178L34.783,28.178L34.783,21.72C34.783,20.517 35.155,19.693 35.839,19.25C36.522,18.807 37.267,18.553 38.137,18.553C38.571,18.553 39.007,18.617 39.441,18.807C39.876,18.997 40.248,19.187 40.497,19.503C40.994,20.2 41.242,21.023 41.242,22.099C41.242,23.176 40.994,24.062 40.497,24.759C40,25.456 39.317,25.709 38.509,25.709C38.075,25.709 37.702,25.646 37.391,25.456C37.035,25.283 36.75,24.991 36.584,24.632L36.522,27.292ZM39.442,22.226C39.442,21.53 39.317,21.023 39.068,20.643C38.82,20.263 38.448,20.073 37.95,20.073C37.516,20.073 37.143,20.263 36.894,20.643C36.646,21.023 36.522,21.53 36.522,22.226C36.522,22.923 36.646,23.366 36.895,23.683C37.143,24.063 37.515,24.253 38.012,24.253C38.447,24.253 38.82,24.063 39.068,23.683C39.317,23.303 39.441,22.796 39.441,22.226L39.442,22.226ZM41.49,25.645L41.49,22.29C41.49,21.594 41.553,21.024 41.801,20.58C41.988,20.137 42.298,19.757 42.609,19.44C42.939,19.176 43.32,18.983 43.727,18.87C44.171,18.741 44.631,18.677 45.093,18.68L45.342,18.68L45.342,20.517L44.782,20.517C44.286,20.517 43.913,20.644 43.665,20.897C43.416,21.15 43.292,21.53 43.292,22.037L43.292,25.583L41.491,25.646L41.49,25.645ZM46.336,25.012C45.963,24.696 45.715,24.252 45.59,23.746C45.466,23.239 45.342,22.669 45.342,22.1C45.342,21.656 45.404,21.15 45.528,20.706C45.652,20.263 45.838,19.883 46.149,19.566C46.579,19.062 47.173,18.726 47.826,18.616C48.51,18.553 49.131,18.553 49.69,18.806C50.373,19.06 50.808,19.503 51.118,20.136C51.428,20.706 51.553,21.403 51.553,22.163C51.553,22.733 51.491,23.176 51.367,23.556C51.242,23.936 51.118,24.316 50.932,24.569C50.497,25.139 50,25.519 49.379,25.645C48.82,25.772 48.261,25.835 47.702,25.709C47.143,25.519 46.708,25.329 46.336,25.012ZM47.578,20.453C47.205,20.833 47.081,21.466 47.081,22.226C47.143,23.049 47.267,23.556 47.516,23.872C47.64,23.999 47.764,24.126 48.075,24.252C48.323,24.316 48.572,24.379 48.882,24.252C49.131,24.189 49.379,23.999 49.565,23.682C49.752,23.366 49.876,22.859 49.876,22.162C49.876,21.53 49.814,21.086 49.566,20.77C49.379,20.453 49.131,20.263 48.882,20.2C48.638,20.137 48.381,20.137 48.137,20.2C47.924,20.204 47.721,20.296 47.577,20.453L47.578,20.453ZM51.304,28.495L51.304,26.975L51.614,26.975C51.73,26.973 51.84,26.928 51.925,26.849C52.003,26.762 52.048,26.649 52.05,26.532L52.05,18.68L52.981,18.68C53.215,18.668 53.443,18.761 53.602,18.934C53.773,19.099 53.864,19.33 53.851,19.567L53.851,26.785C53.851,27.355 53.664,27.799 53.354,28.052C52.981,28.305 52.422,28.432 51.677,28.432L51.304,28.432L51.304,28.495ZM51.987,16.717L52.919,16.717C53.153,16.705 53.381,16.798 53.54,16.971C53.711,17.136 53.802,17.367 53.789,17.604L53.789,18.174L52.049,18.174L51.987,16.717ZM58.882,23.493L60.125,23.493C59.938,24.189 59.565,24.759 59.069,25.139C58.572,25.519 57.889,25.709 57.081,25.709C56.15,25.709 55.342,25.392 54.783,24.759C54.224,24.126 53.976,23.239 53.976,22.099C53.976,20.959 54.224,20.137 54.783,19.503C55.342,18.87 56.087,18.553 57.081,18.553C58.075,18.553 58.882,18.87 59.441,19.503C60.001,20.137 60.249,21.023 60.249,22.163L60.249,22.669L55.839,22.669C55.839,23.176 55.963,23.619 56.212,23.872C56.46,24.126 56.771,24.316 57.205,24.316C57.516,24.316 57.765,24.253 57.951,24.126C58.013,24.126 58.013,24.062 58.075,24.062L58.199,23.936C58.199,23.872 58.261,23.809 58.386,23.746C58.572,23.556 58.696,23.493 58.882,23.493ZM55.839,21.466L58.448,21.466C58.385,21.023 58.323,20.643 58.075,20.453C57.831,20.202 57.493,20.064 57.143,20.073C56.771,20.073 56.46,20.2 56.212,20.453C55.963,20.706 55.839,21.023 55.839,21.466ZM62.36,17.541L62.36,21.276L64.534,18.744L66.646,18.744L64.224,21.404L66.646,25.646L64.534,25.646L63.292,23.303C63.044,22.86 62.795,22.606 62.609,22.733C62.422,22.796 62.36,22.923 62.36,23.049L62.36,25.646L60.56,25.646L60.56,16.717L61.49,16.717C61.725,16.705 61.953,16.798 62.112,16.971C62.27,17.118 62.36,17.325 62.36,17.541ZM70,25.646C69.441,25.709 68.82,25.646 68.199,25.646C67.516,25.582 67.205,25.139 67.205,24.379L67.205,16.717L68.137,16.717C68.385,16.717 68.571,16.781 68.696,16.971C68.882,17.161 68.944,17.351 68.944,17.604L68.944,18.744L70,18.744L70,19.124C70,19.377 69.938,19.63 69.752,19.757C69.593,19.929 69.365,20.022 69.131,20.01L68.944,20.01L68.944,23.873C68.944,24.189 69.13,24.316 69.441,24.316L70.001,24.316L70.001,25.646L70,25.646ZM63.238,0C61.463,0 59.932,0.749 58.77,1.934C57.616,0.696 55.995,-0.006 54.302,-0C52.527,0 50.996,0.749 49.834,1.934C48.68,0.696 47.059,-0.006 45.366,-0C43.591,0 42.06,0.749 40.898,1.934C39.743,0.695 38.122,-0.006 36.428,-0C33.001,0 30.247,2.87 30.185,6.365L30.185,9.735C30.185,10.733 30.981,11.544 31.961,11.544C32.94,11.544 33.735,10.733 33.735,9.734L33.735,6.427C33.735,5.678 34.041,4.992 34.531,4.493C35.029,3.978 35.713,3.686 36.429,3.682C37.144,3.686 37.829,3.978 38.326,4.492C38.816,4.992 39.122,5.678 39.122,6.427L39.122,9.797C39.122,10.795 39.917,11.607 40.897,11.607C41.876,11.607 42.671,10.795 42.671,9.797L42.671,6.489C42.671,5.741 42.977,5.054 43.467,4.555C43.965,4.04 44.649,3.748 45.365,3.744C46.08,3.748 46.765,4.041 47.262,4.555C47.752,5.055 48.058,5.741 48.058,6.489L48.058,9.859C48.058,10.857 48.853,11.669 49.833,11.669C50.812,11.669 51.608,10.857 51.608,9.859L51.608,6.552C51.608,5.803 51.914,5.117 52.403,4.618C52.9,4.103 53.585,3.81 54.301,3.806C55.017,3.81 55.701,4.103 56.198,4.618C56.688,5.117 56.994,5.803 56.994,6.552L56.994,9.922C56.994,10.92 57.789,11.731 58.769,11.731C59.748,11.731 60.544,10.92 60.544,9.921L60.544,6.614C60.544,5.865 60.85,5.179 61.339,4.68C61.837,4.165 62.521,3.873 63.237,3.869C63.952,3.873 64.637,4.165 65.134,4.679C65.624,5.179 65.93,5.865 65.93,6.614L65.93,9.984C65.93,10.982 66.725,11.794 67.705,11.794C68.684,11.794 69.48,10.982 69.48,9.984L69.48,6.677C69.419,2.87 66.665,0 63.238,0Z" style="fill:white;fill-rule:nonzero;"/>
</svg>
