<svg viewBox="0 0 296 121" xmlns="http://www.w3.org/2000/svg" fill-rule="evenodd" clip-rule="evenodd" stroke-linejoin="round" stroke-miterlimit="2"><path d="M0 106.854V73.35c0-1.058.258-2.112 1.033-2.904.78-.792 1.555-1.054 2.85-1.321h7.242l7.246 28.758 7.25-28.491h11.125v37.462h-6.983V76.779l-7.505 30.075h-8.025L6.987 76.779v30.075H0zm56.675-1.316c-1.55.791-3.104 1.32-4.658 1.583-1.55.262-3.104.262-4.4.262-2.584 0-4.659-.791-6.725-2.108-1.813-1.321-2.85-3.696-2.85-7.125 0-2.904.779-5.275 2.587-6.596 1.813-1.321 3.883-2.112 6.729-2.637.263 0 .78 0 1.296-.267.517-.262 1.034-.262 1.813-.262 3.104-.53 4.658-1.321 4.658-2.905 0-1.054-.521-1.845-1.554-2.108-1.034-.262-2.071-.529-3.104-.529-1.038 0-1.813.267-2.588.529-.779.263-1.292.792-1.812 1.583h-6.988c.258-2.112 1.292-3.958 2.846-5.541 1.812-1.584 4.658-2.375 8.283-2.375 3.879 0 6.988.791 8.796 2.112 2.071 1.584 3.108 3.429 3.108 6.067v9.762c0 2.905-.516 5.28-1.554 6.859-1.291 1.85-2.587 3.166-3.883 3.696zm-1.808-13.192a12.839 12.839 0 01-4.142 1.321l-2.333.525c-1.292.262-2.067.791-2.842 1.321a4.293 4.293 0 00-.779 2.375 3.408 3.408 0 001.037 2.637c.517.529 1.55.792 2.846.792 2.071 0 3.625-.529 4.659-1.846 1.033-1.058 1.812-2.904 1.812-4.75l-.258-2.375zm7.504 5.012h7.246c0 1.584.521 2.638 1.554 3.167 1.033.792 2.587 1.054 4.142 1.054 1.291 0 2.329-.262 3.362-.791.779-.53 1.292-1.055 1.292-2.109 0-1.321-1.55-2.375-4.396-2.904-1.292-.262-2.333-.529-2.846-.529-3.883-1.054-6.212-2.108-7.508-3.429-1.55-1.317-2.067-2.9-2.067-5.275 0-2.904 1.033-5.013 3.104-6.863 2.071-1.583 4.917-2.375 8.284-2.375 3.625 0 6.725.792 8.795 2.375 2.071 1.85 3.109 4.225 3.367 7.125h-4.658c-1.292 0-2.334-.529-3.109-1.846l-.775-.791a6.395 6.395 0 00-3.362-1.054c-1.554 0-2.592.262-3.109.525-.516.529-1.033 1.054-1.033 1.85 0 1.054 1.813 2.108 5.433 2.9.313.183.675.275 1.038.262h1.033c3.625 1.058 6.209 2.113 7.504 3.167 1.292 1.321 2.071 2.904 2.071 5.279 0 3.167-1.033 5.542-3.362 7.387-2.071 1.584-5.175 2.375-9.575 2.375-3.884 0-6.988-.791-9.059-2.375-2.333-1.583-3.366-3.958-3.366-7.125zm38.558 9.5c-2.329.263-4.917 0-7.504 0-2.846-.266-4.142-2.112-4.142-5.279V69.654h3.884c1.033 0 1.812.267 2.329 1.059.775.791 1.033 1.583 1.033 2.637v4.75h4.4v1.583c0 1.055-.258 2.109-1.033 2.638a3.302 3.302 0 01-2.588 1.054h-.779v16.096c0 1.317.779 1.846 2.071 1.846h2.333v5.541h-.004zm20.446-8.971l5.179.001c-.779 2.9-2.333 5.275-4.4 6.858-2.071 1.583-4.917 2.375-8.283 2.375-3.879 0-7.246-1.321-9.575-3.959-2.329-2.637-3.363-6.333-3.363-11.083s1.034-8.175 3.363-10.817c2.333-2.637 5.433-3.958 9.575-3.958 4.141 0 7.508 1.321 9.833 3.959 2.333 2.641 3.367 6.333 3.367 11.083v2.108h-18.375c0 2.113.516 3.959 1.554 5.013 1.033 1.058 2.329 1.85 4.137 1.85 1.296 0 2.334-.263 3.109-.792.258 0 .258-.267.516-.267l.517-.525c0-.266.258-.529.779-.791.517-.792 1.034-1.055 2.071-1.055l-.004.001zm-12.679-8.446h10.871c-.259-1.846-.521-3.43-1.554-4.221a5.233 5.233 0 00-3.884-1.584c-1.55.001-2.846.53-3.879 1.584-1.037 1.054-1.554 2.375-1.554 4.221zm19.671 17.412V92.874c0-2.9.258-5.275 1.291-7.125 1.038-1.846 2.071-3.429 3.367-4.75a13.045 13.045 0 014.658-2.375 19.936 19.936 0 015.692-.792h1.033v7.654h-2.583c-2.071 0-3.625.53-4.662 1.584-1.034 1.054-1.55 2.637-1.55 4.75v14.775l-7.25.262.004-.004zm23.808 6.863c.05.987-.329 1.95-1.037 2.637a3.29 3.29 0 01-2.584 1.054h-3.625V90.499c0-5.013 1.55-8.446 4.4-10.292 2.846-1.846 5.95-2.904 9.575-2.904 1.809 0 3.625.267 5.434 1.058 1.812.792 3.362 1.584 4.4 2.9 2.07 2.905 3.104 6.334 3.104 10.817 0 4.488-1.034 8.179-3.104 11.083-2.071 2.905-4.917 3.959-8.284 3.959-1.808 0-3.362-.263-4.658-1.054a7.162 7.162 0 01-3.363-3.434l-.258 11.084zm12.167-21.109c0-2.9-.521-5.012-1.559-6.596-1.033-1.583-2.583-2.375-4.658-2.375-1.808 0-3.362.792-4.4 2.375-1.033 1.584-1.55 3.696-1.55 6.596 0 2.904.517 4.75 1.554 6.071 1.034 1.583 2.584 2.375 4.654 2.375 1.813 0 3.367-.792 4.4-2.375 1.038-1.583 1.555-3.696 1.555-6.071h.004zm8.533 14.246V92.874c0-2.9.263-5.275 1.296-7.125.779-1.846 2.071-3.429 3.367-4.75a13.036 13.036 0 014.658-2.375 19.936 19.936 0 015.692-.792h1.037v7.654h-2.333c-2.067 0-3.621.53-4.654 1.584-1.038 1.054-1.555 2.637-1.555 4.75v14.775l-7.504.262-.004-.004zm20.192-2.637c-1.554-1.317-2.588-3.167-3.109-5.275-.516-2.113-1.033-4.488-1.033-6.859 0-1.85.258-3.958.775-5.808.517-1.846 1.292-3.429 2.588-4.75 1.791-2.1 4.266-3.5 6.987-3.958 2.85-.263 5.438-.263 7.767.791 2.846 1.059 4.658 2.904 5.95 5.542 1.291 2.375 1.812 5.279 1.812 8.446 0 2.375-.258 4.221-.775 5.804-.521 1.583-1.037 3.167-1.812 4.221-1.813 2.375-3.884 3.958-6.471 4.483-2.329.529-4.658.792-6.988.267-2.329-.792-4.141-1.584-5.691-2.904zm5.175-18.996c-1.554 1.583-2.071 4.221-2.071 7.387.258 3.429.775 5.542 1.812 6.859.517.529 1.034 1.058 2.33 1.583 1.033.267 2.07.529 3.362 0 1.038-.263 2.071-1.054 2.846-2.375.779-1.317 1.296-3.429 1.296-6.333 0-2.634-.259-4.484-1.292-5.8-.779-1.321-1.812-2.113-2.85-2.375a6.204 6.204 0 00-3.104 0c-.888.016-1.733.4-2.333 1.054h.004zm15.525 33.508v-6.333h1.291a1.952 1.952 0 001.296-.525c.325-.363.513-.834.521-1.321V77.832h3.879a3.29 3.29 0 012.588 1.059 3.408 3.408 0 011.037 2.637v30.075c0 2.375-.779 4.225-2.071 5.279-1.554 1.054-3.883 1.584-6.987 1.584h-1.554v.262zm2.846-49.075h3.883a3.289 3.289 0 012.587 1.058 3.407 3.407 0 011.038 2.638v2.375h-7.25l-.258-6.071zm28.729 28.233h5.179c-.779 2.9-2.333 5.275-4.4 6.859-2.071 1.583-4.917 2.375-8.283 2.375-3.88 0-7.246-1.321-9.575-3.959-2.33-2.637-3.363-6.333-3.363-11.083s1.033-8.175 3.363-10.817c2.329-2.637 5.433-3.958 9.575-3.958 4.141 0 7.504 1.321 9.833 3.958 2.333 2.642 3.367 6.334 3.367 11.084v2.108h-18.375c0 2.113.516 3.958 1.554 5.013 1.033 1.058 2.329 1.85 4.137 1.85 1.296 0 2.334-.263 3.109-.792.258 0 .258-.267.516-.267l.517-.525c0-.266.258-.529.779-.791.775-.792 1.292-1.055 2.067-1.055zm-12.679-8.445h10.87c-.262-1.846-.52-3.43-1.554-4.221a5.231 5.231 0 00-3.883-1.584c-1.55 0-2.846.53-3.879 1.584-1.038 1.054-1.554 2.375-1.554 4.221zm27.17-16.355v15.563l9.059-10.55h8.8L267.6 89.182l10.092 17.675h-8.8l-5.175-9.762c-1.034-1.846-2.071-2.904-2.846-2.375-.779.262-1.038.791-1.038 1.316v10.821h-7.5V69.653h3.875c.98-.05 1.93.338 2.592 1.058a3.25 3.25 0 011.033 2.375zm31.834 33.771c-2.329.263-4.917 0-7.504 0-2.846-.266-4.142-2.112-4.142-5.279V69.653h3.883c1.034 0 1.809.267 2.329 1.058.775.792 1.034 1.584 1.034 2.638v4.75h4.4v1.583c0 1.054-.259 2.109-1.034 2.638a3.299 3.299 0 01-2.587 1.054h-.779V99.47c0 1.316.775 1.846 2.071 1.846h2.333v5.541h-.004zM263.492-.001c-7.396 0-13.775 3.121-18.617 8.058a25.342 25.342 0 00-18.617-8.058c-7.395 0-13.775 3.121-18.616 8.058a25.345 25.345 0 00-18.617-8.058c-7.396 0-13.775 3.121-18.617 8.058a25.344 25.344 0 00-18.625-8.058c-14.279 0-25.754 11.958-26.012 26.521v14.041c0 4.159 3.317 7.538 7.4 7.538 4.079 0 7.392-3.379 7.392-7.542V26.778c0-3.121 1.275-5.979 3.316-8.058a11.081 11.081 0 017.909-3.379 11.084 11.084 0 017.904 3.375c2.041 2.083 3.316 4.941 3.316 8.062V40.82c0 4.158 3.313 7.541 7.396 7.541 4.079 0 7.392-3.383 7.392-7.541V27.036c0-3.116 1.275-5.979 3.317-8.058a11.085 11.085 0 017.908-3.379 11.092 11.092 0 017.904 3.379c2.042 2.083 3.317 4.942 3.317 8.058v14.042c0 4.158 3.312 7.542 7.396 7.542 4.079 0 7.395-3.384 7.395-7.542V27.299c0-3.121 1.275-5.979 3.313-8.058a11.083 11.083 0 017.908-3.384 11.07 11.07 0 017.904 3.384c2.042 2.079 3.317 4.937 3.317 8.058v14.042c0 4.158 3.313 7.537 7.396 7.537 4.079 0 7.396-3.379 7.396-7.542V27.557c0-3.121 1.275-5.979 3.312-8.058a11.081 11.081 0 017.909-3.379 11.084 11.084 0 017.904 3.375c2.041 2.083 3.316 4.941 3.316 8.062v14.042c0 4.158 3.313 7.542 7.396 7.542 4.079 0 7.396-3.384 7.396-7.542V27.82c-.254-15.863-11.729-27.821-26.008-27.821z" fill="#fff" fill-rule="nonzero"/></svg>

