<?xml version="1.0" encoding="UTF-8" standalone="no"?><!DOCTYPE svg PUBLIC "-//W3C//DTD SVG 1.1//EN" "http://www.w3.org/Graphics/SVG/1.1/DTD/svg11.dtd"><svg width="100%" height="100%" viewBox="0 0 296 121" version="1.1" xmlns="http://www.w3.org/2000/svg" xmlns:xlink="http://www.w3.org/1999/xlink" xml:space="preserve" xmlns:serif="http://www.serif.com/" style="fill-rule:evenodd;clip-rule:evenodd;stroke-linejoin:round;stroke-miterlimit:2;"><path d="M0,106.854l0,-33.504c0,-1.058 0.258,-2.112 1.033,-2.904c0.78,-0.792 1.555,-1.054 2.85,-1.321l7.242,0l7.246,28.758l7.25,-28.491l11.125,-0l-0,37.462l-6.983,0l-0,-30.075l-7.505,30.075l-8.025,0l-7.246,-30.075l0,30.075l-6.987,0Zm56.675,-1.316c-1.55,0.791 -3.104,1.32 -4.658,1.583c-1.55,0.262 -3.104,0.262 -4.4,0.262c-2.584,0 -4.659,-0.791 -6.725,-2.108c-1.813,-1.321 -2.85,-3.696 -2.85,-7.125c-0,-2.904 0.779,-5.275 2.587,-6.596c1.813,-1.321 3.883,-2.112 6.729,-2.637c0.263,-0 0.78,-0 1.296,-0.267c0.517,-0.262 1.034,-0.262 1.813,-0.262c3.104,-0.53 4.658,-1.321 4.658,-2.905c0,-1.054 -0.521,-1.845 -1.554,-2.108c-1.034,-0.262 -2.071,-0.529 -3.104,-0.529c-1.038,-0 -1.813,0.267 -2.588,0.529c-0.779,0.263 -1.292,0.792 -1.812,1.583l-6.988,0c0.258,-2.112 1.292,-3.958 2.846,-5.541c1.812,-1.584 4.658,-2.375 8.283,-2.375c3.879,-0 6.988,0.791 8.796,2.112c2.071,1.584 3.108,3.429 3.108,6.067l0,9.762c0,2.905 -0.516,5.28 -1.554,6.859c-1.291,1.85 -2.587,3.166 -3.883,3.696Zm-1.808,-13.192c-1.296,0.671 -2.696,1.121 -4.142,1.321l-2.333,0.525c-1.292,0.262 -2.067,0.791 -2.842,1.321c-0.488,0.695 -0.762,1.525 -0.779,2.375c-0.054,0.987 0.325,1.95 1.037,2.637c0.517,0.529 1.55,0.792 2.846,0.792c2.071,-0 3.625,-0.529 4.659,-1.846c1.033,-1.058 1.812,-2.904 1.812,-4.75l-0.258,-2.375Zm7.504,5.012l7.246,0c-0,1.584 0.521,2.638 1.554,3.167c1.033,0.792 2.587,1.054 4.142,1.054c1.291,0 2.329,-0.262 3.362,-0.791c0.779,-0.53 1.292,-1.055 1.292,-2.109c-0,-1.321 -1.55,-2.375 -4.396,-2.904c-1.292,-0.262 -2.333,-0.529 -2.846,-0.529c-3.883,-1.054 -6.212,-2.108 -7.508,-3.429c-1.55,-1.317 -2.067,-2.9 -2.067,-5.275c0,-2.904 1.033,-5.013 3.104,-6.863c2.071,-1.583 4.917,-2.375 8.284,-2.375c3.625,0 6.725,0.792 8.795,2.375c2.071,1.85 3.109,4.225 3.367,7.125l-4.658,0c-1.292,0 -2.334,-0.529 -3.109,-1.846l-0.775,-0.791c-1,-0.659 -2.166,-1.025 -3.362,-1.054c-1.554,-0 -2.592,0.262 -3.109,0.525c-0.516,0.529 -1.033,1.054 -1.033,1.85c0,1.054 1.813,2.108 5.433,2.9c0.313,0.183 0.675,0.275 1.038,0.262l1.033,0c3.625,1.058 6.209,2.113 7.504,3.167c1.292,1.321 2.071,2.904 2.071,5.279c0,3.167 -1.033,5.542 -3.362,7.387c-2.071,1.584 -5.175,2.375 -9.575,2.375c-3.884,0 -6.988,-0.791 -9.059,-2.375c-2.333,-1.583 -3.366,-3.958 -3.366,-7.125Zm38.558,9.5c-2.329,0.263 -4.917,0 -7.504,0c-2.846,-0.266 -4.142,-2.112 -4.142,-5.279l0,-31.925l3.884,0c1.033,0 1.812,0.267 2.329,1.059c0.775,0.791 1.033,1.583 1.033,2.637l0,4.75l4.4,0l0,1.583c0,1.055 -0.258,2.109 -1.033,2.638c-0.663,0.716 -1.613,1.104 -2.588,1.054l-0.779,0l0,16.096c0,1.317 0.779,1.846 2.071,1.846l2.333,-0l0,5.541l-0.004,0Zm20.446,-8.971l5.179,0.001c-0.779,2.9 -2.333,5.275 -4.4,6.858c-2.071,1.583 -4.917,2.375 -8.283,2.375c-3.879,-0 -7.246,-1.321 -9.575,-3.959c-2.329,-2.637 -3.363,-6.333 -3.363,-11.083c0,-4.75 1.034,-8.175 3.363,-10.817c2.333,-2.637 5.433,-3.958 9.575,-3.958c4.141,0 7.508,1.321 9.833,3.959c2.333,2.641 3.367,6.333 3.367,11.083l-0,2.108l-18.375,0c-0,2.113 0.516,3.959 1.554,5.013c1.033,1.058 2.329,1.85 4.137,1.85c1.296,-0 2.334,-0.263 3.109,-0.792c0.258,0 0.258,-0.267 0.516,-0.267l0.517,-0.525c0,-0.266 0.258,-0.529 0.779,-0.791c0.517,-0.792 1.034,-1.055 2.071,-1.055l-0.004,0.001Zm-12.679,-8.446l10.871,-0c-0.259,-1.846 -0.521,-3.43 -1.554,-4.221c-1.017,-1.046 -2.425,-1.621 -3.884,-1.584c-1.55,0.001 -2.846,0.53 -3.879,1.584c-1.037,1.054 -1.554,2.375 -1.554,4.221Zm19.671,17.412l-0,-13.979c-0,-2.9 0.258,-5.275 1.291,-7.125c1.038,-1.846 2.071,-3.429 3.367,-4.75c1.375,-1.1 2.963,-1.904 4.658,-2.375c1.85,-0.538 3.767,-0.804 5.692,-0.792l1.033,0l0,7.654l-2.583,0c-2.071,0 -3.625,0.53 -4.662,1.584c-1.034,1.054 -1.55,2.637 -1.55,4.75l-0,14.775l-7.25,0.262l0.004,-0.004Zm23.808,6.863c0.05,0.987 -0.329,1.95 -1.037,2.637c-0.663,0.717 -1.609,1.104 -2.584,1.054l-3.625,0l0,-26.908c0,-5.013 1.55,-8.446 4.4,-10.292c2.846,-1.846 5.95,-2.904 9.575,-2.904c1.809,0 3.625,0.267 5.434,1.058c1.812,0.792 3.362,1.584 4.4,2.9c2.07,2.905 3.104,6.334 3.104,10.817c-0,4.488 -1.034,8.179 -3.104,11.083c-2.071,2.905 -4.917,3.959 -8.284,3.959c-1.808,-0 -3.362,-0.263 -4.658,-1.054c-1.483,-0.721 -2.671,-1.938 -3.363,-3.434l-0.258,11.084Zm12.167,-21.109c-0,-2.9 -0.521,-5.012 -1.559,-6.596c-1.033,-1.583 -2.583,-2.375 -4.658,-2.375c-1.808,0 -3.362,0.792 -4.4,2.375c-1.033,1.584 -1.55,3.696 -1.55,6.596c0,2.904 0.517,4.75 1.554,6.071c1.034,1.583 2.584,2.375 4.654,2.375c1.813,0 3.367,-0.792 4.4,-2.375c1.038,-1.583 1.555,-3.696 1.555,-6.071l0.004,0Zm8.533,14.246l0,-13.979c0,-2.9 0.263,-5.275 1.296,-7.125c0.779,-1.846 2.071,-3.429 3.367,-4.75c1.375,-1.1 2.962,-1.904 4.658,-2.375c1.85,-0.538 3.767,-0.804 5.692,-0.792l1.037,0l0,7.654l-2.333,0c-2.067,0 -3.621,0.53 -4.654,1.584c-1.038,1.054 -1.555,2.637 -1.555,4.75l0,14.775l-7.504,0.262l-0.004,-0.004Zm20.192,-2.637c-1.554,-1.317 -2.588,-3.167 -3.109,-5.275c-0.516,-2.113 -1.033,-4.488 -1.033,-6.859c0,-1.85 0.258,-3.958 0.775,-5.808c0.517,-1.846 1.292,-3.429 2.588,-4.75c1.791,-2.1 4.266,-3.5 6.987,-3.958c2.85,-0.263 5.438,-0.263 7.767,0.791c2.846,1.059 4.658,2.904 5.95,5.542c1.291,2.375 1.812,5.279 1.812,8.446c0,2.375 -0.258,4.221 -0.775,5.804c-0.521,1.583 -1.037,3.167 -1.812,4.221c-1.813,2.375 -3.884,3.958 -6.471,4.483c-2.329,0.529 -4.658,0.792 -6.988,0.267c-2.329,-0.792 -4.141,-1.584 -5.691,-2.904Zm5.175,-18.996c-1.554,1.583 -2.071,4.221 -2.071,7.387c0.258,3.429 0.775,5.542 1.812,6.859c0.517,0.529 1.034,1.058 2.33,1.583c1.033,0.267 2.07,0.529 3.362,-0c1.038,-0.263 2.071,-1.054 2.846,-2.375c0.779,-1.317 1.296,-3.429 1.296,-6.333c-0,-2.634 -0.259,-4.484 -1.292,-5.8c-0.779,-1.321 -1.812,-2.113 -2.85,-2.375c-1.017,-0.263 -2.087,-0.263 -3.104,-0c-0.888,0.016 -1.733,0.4 -2.333,1.054l0.004,-0Zm15.525,33.508l-0,-6.333l1.291,-0c0.484,-0.009 0.942,-0.196 1.296,-0.525c0.325,-0.363 0.513,-0.834 0.521,-1.321l0,-32.717l3.879,0c0.975,-0.05 1.925,0.338 2.588,1.059c0.712,0.687 1.091,1.65 1.037,2.637l0,30.075c0,2.375 -0.779,4.225 -2.071,5.279c-1.554,1.054 -3.883,1.584 -6.987,1.584l-1.554,-0l-0,0.262Zm2.846,-49.075l3.883,0c0.975,-0.05 1.925,0.338 2.587,1.058c0.713,0.688 1.092,1.65 1.038,2.638l-0,2.375l-7.25,-0l-0.258,-6.071Zm28.729,28.233l5.179,0c-0.779,2.9 -2.333,5.275 -4.4,6.859c-2.071,1.583 -4.917,2.375 -8.283,2.375c-3.88,-0 -7.246,-1.321 -9.575,-3.959c-2.33,-2.637 -3.363,-6.333 -3.363,-11.083c0,-4.75 1.033,-8.175 3.363,-10.817c2.329,-2.637 5.433,-3.958 9.575,-3.958c4.141,0 7.504,1.321 9.833,3.958c2.333,2.642 3.367,6.334 3.367,11.084l-0,2.108l-18.375,0c-0,2.113 0.516,3.958 1.554,5.013c1.033,1.058 2.329,1.85 4.137,1.85c1.296,-0 2.334,-0.263 3.109,-0.792c0.258,-0 0.258,-0.267 0.516,-0.267l0.517,-0.525c-0,-0.266 0.258,-0.529 0.779,-0.791c0.775,-0.792 1.292,-1.055 2.067,-1.055Zm-12.679,-8.445l10.87,-0c-0.262,-1.846 -0.52,-3.43 -1.554,-4.221c-1.016,-1.046 -2.425,-1.621 -3.883,-1.584c-1.55,0 -2.846,0.53 -3.879,1.584c-1.038,1.054 -1.554,2.375 -1.554,4.221Zm27.17,-16.355l0,15.563l9.059,-10.55l8.8,-0l-10.092,11.083l10.092,17.675l-8.8,0l-5.175,-9.762c-1.034,-1.846 -2.071,-2.904 -2.846,-2.375c-0.779,0.262 -1.038,0.791 -1.038,1.316l0,10.821l-7.5,0l0,-37.204l3.875,0c0.98,-0.05 1.93,0.338 2.592,1.058c0.658,0.613 1.033,1.475 1.033,2.375Zm31.834,33.771c-2.329,0.263 -4.917,0 -7.504,0c-2.846,-0.266 -4.142,-2.112 -4.142,-5.279l-0,-31.925l3.883,0c1.034,0 1.809,0.267 2.329,1.058c0.775,0.792 1.034,1.584 1.034,2.638l-0,4.75l4.4,-0l-0,1.583c-0,1.054 -0.259,2.109 -1.034,2.638c-0.662,0.716 -1.612,1.104 -2.587,1.054l-0.779,-0l-0,16.096c-0,1.316 0.775,1.846 2.071,1.846l2.333,-0l-0,5.541l-0.004,0Zm-28.175,-106.858c-7.396,-0 -13.775,3.121 -18.617,8.058c-4.808,-5.158 -11.562,-8.083 -18.617,-8.058c-7.395,-0 -13.775,3.121 -18.616,8.058c-4.809,-5.158 -11.563,-8.083 -18.617,-8.058c-7.396,-0 -13.775,3.121 -18.617,8.058c-4.812,-5.162 -11.566,-8.083 -18.625,-8.058c-14.279,-0 -25.754,11.958 -26.012,26.521l-0,14.041c-0,4.159 3.317,7.538 7.4,7.538c4.079,-0 7.392,-3.379 7.392,-7.542l-0,-13.779c-0,-3.121 1.275,-5.979 3.316,-8.058c2.075,-2.146 4.925,-3.363 7.909,-3.379c2.979,0.016 5.833,1.233 7.904,3.375c2.041,2.083 3.316,4.941 3.316,8.062l0,14.042c0,4.158 3.313,7.541 7.396,7.541c4.079,0 7.392,-3.383 7.392,-7.541l-0,-13.784c-0,-3.116 1.275,-5.979 3.317,-8.058c2.075,-2.146 4.925,-3.362 7.908,-3.379c2.979,0.017 5.833,1.237 7.904,3.379c2.042,2.083 3.317,4.942 3.317,8.058l-0,14.042c-0,4.158 3.312,7.542 7.396,7.542c4.079,-0 7.395,-3.384 7.395,-7.542l0,-13.779c0,-3.121 1.275,-5.979 3.313,-8.058c2.071,-2.146 4.925,-3.367 7.908,-3.384c2.984,0.017 5.834,1.238 7.904,3.384c2.042,2.079 3.317,4.937 3.317,8.058l0,14.042c0,4.158 3.313,7.537 7.396,7.537c4.079,0 7.396,-3.379 7.396,-7.542l-0,-13.779c-0,-3.121 1.275,-5.979 3.312,-8.058c2.075,-2.146 4.925,-3.363 7.909,-3.379c2.979,0.016 5.833,1.233 7.904,3.375c2.041,2.083 3.316,4.941 3.316,8.062l0,14.042c0,4.158 3.313,7.542 7.396,7.542c4.079,-0 7.396,-3.384 7.396,-7.542l0,-13.779c-0.254,-15.863 -11.729,-27.821 -26.008,-27.821Z" style="fill:#fff;fill-rule:nonzero;"/></svg>